<?xml version="1.0" encoding="UTF-8"?>
<svg width="771px" height="205px" viewBox="0 0 771 205" version="1.1" xmlns="http://www.w3.org/2000/svg" xmlns:xlink="http://www.w3.org/1999/xlink">
    <title>MG-MiParral</title>
    <g id="ADMIN" stroke="none" stroke-width="1" fill="none" fill-rule="evenodd">
        <g id="INICIO" transform="translate(-820.000000, -458.000000)" fill="#FF2755" fill-rule="nonzero">
            <g id="MG-MiParral" transform="translate(820.000000, 458.000000)">
                <g id="g16" transform="translate(385.500000, 102.500000) scale(1, -1) translate(-385.500000, -102.500000) ">
                    <g id="g22" transform="translate(339.000000, 90.000000)">
                        <path d="M0,53.8026627 L16.9276298,53.8026627 L17.8952468,48.138618 C19.8923093,50.3887323 22.1799661,52.0962212 24.7499733,53.2589898 C27.3189501,54.4196633 30.0682602,55 33.0009949,55 C36.2830611,55 39.1951864,54.3096716 41.7342793,52.93111 C44.2682199,51.5525484 46.3209281,49.5905074 47.8924041,47.0512723 C52.1049901,52.3486782 58.0322882,55 65.675329,55 C72.2477051,55 77.4433653,53.0589098 81.2674618,49.1735868 C85.086406,45.2893113 87,39.9709546 87,33.2174691 L87,0 L67.4972106,0 L67.4972106,30.2770265 C67.4972106,32.8916844 66.9088088,34.9417187 65.7309747,36.430272 C64.5541711,37.9188252 62.8909827,38.6625781 60.750684,38.6625781 C58.4630272,38.6625781 56.624658,37.8088336 55.2324849,36.1055348 C53.8403117,34.3980459 53.14371,32.0903169 53.14371,29.1896808 L53.14371,0 L33.85629,0 L33.85629,30.2770265 C33.85629,32.8916844 33.2678882,34.9417187 32.0900541,36.430272 C30.9132505,37.9188252 29.2490317,38.6625781 27.1097635,38.6625781 C24.8210762,38.6625781 22.9837374,37.8088336 21.5915643,36.1055348 C20.1993912,34.3980459 19.5027894,32.0903169 19.5027894,29.1896808 L19.5027894,0 L0,0 L0,53.8026627 Z" id="path24"></path>
                    </g>
                    <path d="M433.331444,143.977147 L453.555287,143.977147 L453.555287,91 L433.331444,91 L433.331444,143.977147 Z M435.221752,165.156247 C437.371725,167.052082 440.110481,168 443.443366,168 C446.852119,168 449.628275,167.052082 451.777179,165.156247 C453.921808,163.262475 455,160.813773 455,157.811175 C455,154.877684 453.921808,152.467147 451.777179,150.571312 C449.628275,148.678571 446.852119,147.730653 443.443366,147.730653 C440.110481,147.730653 437.371725,148.678571 435.221752,150.571312 C433.07178,152.467147 432,154.877684 432,157.811175 C432,160.813773 433.07178,163.262475 435.221752,165.156247" id="path26"></path>
                    <g id="g28" transform="translate(462.000000, 68.000000)">
                        <path d="M22.3121606,40.1924166 C24.2854434,38.0880261 26.8482289,37.0348013 30.0025855,37.0348013 C33.1569422,37.0348013 35.7155908,38.0880261 37.6888736,40.1924166 C39.6611221,42.2968071 40.6477635,45.0642247 40.6477635,48.4905512 C40.6477635,51.9137891 39.6611221,54.6781181 37.6888736,56.7855972 C35.7155908,58.8899877 33.1569422,59.9432125 30.0025855,59.9432125 C26.8482289,59.9432125 24.2854434,58.8899877 22.3121606,56.7855972 C20.3399121,54.6781181 19.3584418,51.9137891 19.3584418,48.4905512 C19.3584418,45.0642247 20.3399121,42.2968071 22.3121606,40.1924166 M0,74.9282434 L16.9900888,74.9282434 L18.0687753,68.8271583 C22.5841593,73.6063073 28.2454538,76 35.0526588,76 C39.8565888,76 44.156856,74.838673 47.9586314,72.5191075 C51.7604068,70.2005717 54.7141257,66.9523564 56.8311644,62.7796096 C58.9419978,58.6037741 60,53.8421274 60,48.4905512 C60,43.1358864 58.9419978,38.3742397 56.8311644,34.1984042 C54.7141257,30.0256574 51.7604068,26.775383 47.9586314,24.4589062 C44.156856,22.1393408 39.8565888,20.9780138 35.0526588,20.9780138 C29.0314574,20.9780138 23.8738257,22.906352 19.5735586,26.7599399 L19.5735586,0 L0,0 L0,74.9282434 Z" id="path30"></path>
                    </g>
                    <g id="g32" transform="translate(524.000000, 89.000000)">
                        <path d="M22.3121606,19.2067249 C24.2844092,17.1031753 26.8430578,16.0503714 30.0025855,16.0503714 C33.1517711,16.0503714 35.7155908,17.1031753 37.6888736,19.2067249 C39.6611221,21.3102745 40.6477635,24.0765863 40.6477635,27.5015437 C40.6477635,30.9234137 39.6611221,33.6866381 37.6888736,35.7932751 C35.7155908,37.8968247 33.1517711,38.9496286 30.0025855,38.9496286 C26.8430578,38.9496286 24.2844092,37.8968247 22.3121606,35.7932751 C20.3388779,33.6866381 19.3532707,30.9234137 19.3532707,27.5015437 C19.3532707,24.0765863 20.3388779,21.3102745 22.3121606,19.2067249 M12.0424028,3.47950152 C8.24062742,5.79505267 5.28690856,9.04402822 3.16986986,13.2151077 C1.05903646,17.3892746 0,22.1490186 0,27.5015437 C0,32.8509814 1.05903646,37.6107254 3.16986986,41.7848923 C5.28690856,45.9559718 8.24062742,49.2028891 12.0424028,51.5204985 C15.8441782,53.839137 20.1444454,55 24.9473412,55 C31.7545462,55 37.4210118,52.6072638 41.93743,47.8300245 L43.0109454,53.9286717 L60,53.9286717 L60,1.07132833 L43.0109454,1.07132833 L41.93743,7.27700541 C37.4210118,2.42566847 31.7545462,0 24.9473412,0 C20.1444454,0 15.8441782,1.16086298 12.0424028,3.47950152" id="path34"></path>
                    </g>
                    <g id="g36" transform="translate(594.000000, 90.000000)">
                        <path d="M0,53.8026627 L16.9405535,53.8026627 L18.2103822,47.3760094 C19.8335634,49.9906674 21.7917676,51.9139494 24.0880496,53.1500457 C26.3792401,54.3829994 28.8679822,55 31.5491842,55 C33.881107,55 36.2639451,54.5286073 38.6966803,53.583727 C41.1355253,52.6398941 43.2342558,51.2246686 45,49.3380504 L37.1641284,35.3973983 C35.6824919,36.3391361 34.3566563,37.0106087 33.1937499,37.4107687 C32.0298251,37.8088336 30.7396302,38.0099611 29.3282569,38.0099611 C26.2224209,38.0099611 23.7693195,37.0315595 21.968953,35.0695185 C20.1675681,33.1106201 19.2724763,30.1314186 19.2724763,26.1371515 L19.2724763,0 L0,0 L0,53.8026627 Z" id="path38"></path>
                    </g>
                    <g id="g40" transform="translate(641.000000, 90.000000)">
                        <path d="M0,53.8026627 L16.9405535,53.8026627 L18.2103822,47.3760094 C19.8345817,49.9906674 21.7917676,51.9139494 24.0880496,53.1500457 C26.3792401,54.3829994 28.8679822,55 31.5491842,55 C33.881107,55 36.2639451,54.5286073 38.6966803,53.583727 C41.1355253,52.6398941 43.2342558,51.2246686 45,49.3380504 L37.1641284,35.3973983 C35.6824919,36.3391361 34.3566563,37.0106087 33.1937499,37.4107687 C32.0298251,37.8088336 30.7396302,38.0099611 29.3282569,38.0099611 C26.2224209,38.0099611 23.7693195,37.0315595 21.968953,35.0695185 C20.1675681,33.1106201 19.2724763,30.1314186 19.2724763,26.1371515 L19.2724763,0 L0,0 L0,53.8026627 Z" id="path42"></path>
                    </g>
                    <g id="g44" transform="translate(684.000000, 89.000000)">
                        <path d="M22.3121606,19.2067249 C24.2854434,17.1031753 26.8430578,16.0503714 30.0025855,16.0503714 C33.1517711,16.0503714 35.7155908,17.1031753 37.6888736,19.2067249 C39.6611221,21.3102745 40.6477635,24.0765863 40.6477635,27.5015437 C40.6477635,30.9234137 39.6611221,33.6866381 37.6888736,35.7932751 C35.7155908,37.8968247 33.1517711,38.9496286 30.0025855,38.9496286 C26.8430578,38.9496286 24.2854434,37.8968247 22.3121606,35.7932751 C20.3399121,33.6866381 19.3532707,30.9234137 19.3532707,27.5015437 C19.3532707,24.0765863 20.3399121,21.3102745 22.3121606,19.2067249 M12.0424028,3.47950152 C8.24062742,5.79505267 5.28690856,9.04402822 3.16986986,13.2151077 C1.05903646,17.3892746 0,22.1490186 0,27.5015437 C0,32.8509814 1.05903646,37.6107254 3.16986986,41.7848923 C5.28690856,45.9559718 8.24062742,49.2028891 12.0424028,51.5204985 C15.8441782,53.839137 20.1444454,55 24.9473412,55 C31.7545462,55 37.4210118,52.6072638 41.93743,47.8300245 L43.0109454,53.9286717 L60,53.9286717 L60,1.07132833 L43.0109454,1.07132833 L41.93743,7.27700541 C37.4210118,2.42566847 31.7545462,0 24.9473412,0 C20.1444454,0 15.8441782,1.16086298 12.0424028,3.47950152" id="path46"></path>
                    </g>
                    <polygon id="path48" points="752 166 771 166 771 90 752 90"></polygon>
                    <polygon id="path50" points="300 63 290 63 290 173 300 173"></polygon>
                    <g id="g52" transform="translate(0.000000, 71.000000)">
                        <path d="M203.866338,64.0277082 C200.048054,59.9250204 195.093092,57.8741962 189.002488,57.8741962 C182.902558,57.8741962 177.947596,59.9250204 174.137601,64.0277082 C171.291243,67.0857542 169.516285,70.8610169 168.795111,75.3472598 L168.795111,85.0380018 C169.516285,89.5242447 171.291243,93.2995074 174.137601,96.3575534 C177.947596,100.450886 182.902558,102.50275 189.002488,102.50275 C195.093092,102.50275 200.048054,100.450886 203.866338,96.3575534 C207.676333,92.2548656 209.580813,86.8632665 209.580813,80.1921111 C209.580813,73.5219951 207.676333,68.130396 203.866338,64.0277082 M240.865877,108.034674 C236.776116,116.169367 231.060605,122.49023 223.720381,127.012853 C216.371867,131.527161 208.052463,133.788993 198.771493,133.788993 C185.602816,133.788993 174.653613,129.126044 165.922849,119.815739 C164.813112,118.547617 163.820462,117.330427 162.897235,116.1465 C161.428983,118.5788 159.696507,120.814645 157.680121,122.840523 C150.260112,130.273591 140.176111,134 127.427082,134 C112.597425,134 101.09698,128.915037 92.9174588,118.773176 C89.8680121,123.637777 85.8829045,127.390172 80.9631719,130.037637 C76.0434394,132.675748 70.3983883,134 64.0280185,134 C58.3394483,134 53.0083565,132.8774 48.0192006,130.659225 C43.0290085,128.432735 38.5900586,125.163681 34.7096041,120.859341 L32.8403544,131.702827 L0,131.702827 L0,28.6824342 L37.8295103,28.6824342 L37.8295103,84.5671334 C37.8295103,90.1333592 39.1837837,94.5426832 41.8840413,97.8127759 C44.5842989,101.082869 48.1590835,102.712718 52.589744,102.712718 C56.7489282,102.712718 59.9734875,101.284521 62.2540964,98.4354032 C64.5440309,95.5862855 65.6889981,91.6592639 65.6889981,86.6532987 L65.6889981,28.6824342 L103.107149,28.6824342 L103.107149,84.5671334 C103.107149,90.1333592 104.461423,94.5426832 107.16168,97.8127759 C109.861938,101.082869 113.427397,102.712718 117.866347,102.712718 C122.026567,102.712718 125.251126,101.284521 127.531735,98.4354032 C129.820634,95.5862855 130.965601,91.6592639 130.965601,86.6532987 L130.965601,28.6824342 L131.003939,28.6824342 L131.003939,0 L143.284619,0 C157.395175,0 168.833449,11.4744289 168.833449,25.6285459 L168.833449,37.8607299 C177.152854,30.3476244 187.132202,26.5962689 198.771493,26.5962689 C208.052463,26.5962689 216.371867,28.8570609 223.720381,33.3724082 C231.060605,37.8867161 236.776116,44.2158942 240.865877,52.3505876 C244.955638,60.4863204 247,69.7602451 247,80.1921111 C247,90.6156615 244.955638,99.8989412 240.865877,108.034674" id="path54"></path>
                    </g>
                    <g id="g56">
                        <path d="M111.493291,36.8471668 C78.4608794,36.8471668 49.1878521,57.7451887 38.2152409,89 L0,89 C11.9078121,37.2834057 58.4108324,0 111.493291,0 C164.581942,0 211.092188,37.2834057 223,89 L184.778566,89 C173.804922,57.7451887 144.532927,36.8471668 111.493291,36.8471668" id="path58"></path>
                    </g>
                </g>
            </g>
        </g>
    </g>
</svg>